<?xml version="1.0" standalone="no"?>
<!DOCTYPE svg PUBLIC "-//W3C//DTD SVG 20010904//EN"
 "http://www.w3.org/TR/2001/REC-SVG-20010904/DTD/svg10.dtd">
<svg version="1.0" xmlns="http://www.w3.org/2000/svg"
 width="629.000000pt" height="507.000000pt" viewBox="0 0 629.000000 507.000000"
 preserveAspectRatio="xMidYMid meet">
<metadata>
Created by potrace 1.15, written by Peter Selinger 2001-2017
</metadata>
<g transform="translate(0.000000,507.000000) scale(0.100000,-0.100000)"
fill="#000000" stroke="none">
<path d="M3860 5033 c-19 -10 -124 -106 -232 -214 -108 -108 -208 -199 -221
-203 -36 -9 -134 -109 -201 -203 -58 -84 -76 -99 -76 -63 0 11 -3 20 -7 20
-10 0 -223 -326 -303 -463 -56 -97 -68 -111 -112 -133 -58 -30 -72 -51 -139
-214 -66 -162 -78 -183 -94 -177 -26 11 -74 -78 -110 -203 -19 -67 -35 -130
-35 -140 0 -10 -3 -26 -6 -35 -6 -14 -11 -12 -35 11 -16 15 -31 26 -33 23 -5
-5 -32 -267 -42 -407 -7 -99 -19 -126 -29 -65 -37 216 -51 270 -75 276 -13 3
-22 26 -34 83 -34 158 -53 210 -92 244 -29 25 -42 50 -65 118 -49 153 -69 190
-126 231 -18 12 -47 43 -64 67 -56 81 -140 159 -189 174 -25 7 -92 48 -150 90
-191 139 -203 145 -295 146 -76 0 -85 3 -180 51 -118 59 -314 139 -367 148
-32 6 -46 2 -88 -25 -27 -18 -50 -33 -50 -35 0 -1 47 -105 104 -231 104 -227
105 -229 84 -245 -18 -14 -20 -23 -14 -68 7 -57 71 -210 117 -282 31 -50 37
-74 15 -66 -8 3 -16 3 -19 0 -10 -10 170 -237 248 -313 48 -47 84 -92 96 -120
19 -45 65 -94 385 -412 133 -133 173 -190 80 -113 -36 29 -59 39 -118 50 -40
7 -104 27 -143 45 -67 31 -73 32 -132 22 -51 -8 -75 -7 -140 9 -101 24 -131
23 -173 -2 -34 -21 -41 -22 -287 -15 -139 4 -253 3 -253 -2 0 -5 30 -28 68
-52 37 -23 63 -44 57 -46 -5 -2 -62 -17 -125 -34 -63 -17 -138 -42 -167 -56
-45 -21 -53 -31 -67 -71 -9 -26 -16 -52 -16 -60 0 -21 70 -50 186 -77 60 -13
142 -32 182 -41 l73 -17 29 -58 29 -58 58 -7 c92 -11 276 -55 298 -71 11 -7
30 -21 41 -29 12 -9 63 -21 115 -27 71 -8 98 -15 109 -30 10 -12 38 -22 80
-29 36 -5 96 -24 133 -41 85 -39 87 -59 7 -70 -30 -4 -74 -10 -97 -13 -28 -4
-57 -19 -88 -44 -26 -21 -65 -44 -88 -51 -83 -24 -171 -86 -165 -114 2 -8 -42
-45 -107 -91 -60 -42 -129 -95 -153 -118 -52 -50 -217 -265 -210 -273 3 -3
114 23 247 56 132 34 246 58 251 55 6 -3 10 -13 10 -21 0 -12 7 -14 28 -10 15
3 54 10 87 16 33 6 83 16 111 24 28 7 73 11 100 9 27 -3 73 0 103 5 37 7 64 6
84 -1 22 -7 57 -6 125 2 86 12 98 11 128 -5 31 -17 36 -17 148 5 76 14 132 20
163 16 34 -5 79 1 158 20 61 14 148 29 194 32 l83 6 -7 -23 c-13 -40 -7 -351
9 -460 30 -208 75 -376 119 -442 61 -90 191 -115 267 -51 38 32 40 80 6 161
-75 180 -126 413 -133 616 l-6 149 24 -6 c13 -3 89 -35 169 -71 109 -50 156
-66 190 -66 35 0 68 -13 150 -56 126 -67 155 -77 180 -62 14 9 35 2 110 -36
74 -39 98 -47 124 -42 25 5 48 -2 100 -29 43 -23 75 -33 90 -29 14 3 41 -7 81
-31 50 -30 67 -36 99 -31 46 5 105 -21 240 -109 107 -70 139 -77 194 -40 38
25 40 29 35 63 -11 76 -94 223 -195 344 -30 37 -37 52 -32 72 8 33 -20 79 -68
113 -21 14 -38 29 -38 33 0 18 56 29 95 20 65 -15 156 -13 169 6 10 13 23 14
96 5 103 -13 490 -15 490 -2 0 5 -7 11 -15 15 -21 8 -19 26 4 26 10 0 34 13
54 29 l36 28 203 7 c196 6 428 32 428 47 0 22 -220 192 -340 263 -68 40 -199
102 -273 129 -16 6 -17 8 -2 31 16 25 16 25 -41 51 -69 32 -150 51 -271 65
-57 6 -108 18 -133 31 -32 17 -66 22 -172 27 -141 7 -166 19 -101 45 21 8 86
36 146 62 85 37 105 50 97 60 -13 16 1 25 65 45 61 19 145 72 145 92 0 21 10
27 143 77 149 56 176 70 192 101 9 17 53 51 112 88 124 76 261 174 297 211 17
18 30 44 33 70 5 35 14 48 52 78 25 20 85 75 132 123 82 81 87 89 94 140 7 52
12 59 114 165 161 166 212 226 232 270 28 60 24 69 -31 95 -50 23 -53 24 -168
11 -147 -16 -442 -65 -542 -91 -66 -17 -76 -18 -86 -5 -22 30 -105 19 -226
-31 -156 -63 -152 -62 -143 -33 4 13 10 30 12 37 8 19 -13 14 -55 -11 -20 -13
-77 -45 -125 -72 -101 -54 -198 -125 -309 -225 -42 -39 -85 -70 -95 -70 -36 0
-85 -37 -211 -162 -87 -86 -143 -133 -173 -146 -50 -22 -111 -85 -220 -229
-65 -85 -102 -119 -84 -76 40 98 46 126 35 177 -9 45 -8 60 15 125 45 133 64
215 67 291 3 73 2 75 -20 72 -29 -4 -28 3 4 192 26 154 29 301 5 330 -6 8 0
60 20 156 45 221 45 213 17 225 -13 6 -22 17 -20 27 1 9 16 81 33 160 28 131
32 167 40 428 5 157 12 315 15 352 5 65 5 69 -24 98 -35 35 -69 38 -122 13z
m60 -107 c0 -13 -9 -75 -20 -137 -29 -163 -70 -421 -70 -441 0 -30 20 -20 36
17 21 51 37 45 29 -12 -14 -104 -81 -432 -101 -495 -3 -11 0 -18 7 -18 7 0 21
8 32 18 19 17 19 16 15 -18 -3 -19 -20 -115 -37 -214 -18 -98 -30 -185 -27
-193 4 -9 13 -12 26 -8 26 8 26 16 -15 -237 -38 -231 -43 -298 -22 -298 7 0
18 5 25 12 22 22 13 -21 -38 -181 -27 -86 -53 -171 -56 -189 -7 -33 3 -41 24
-20 32 32 -14 -96 -90 -247 -50 -100 -54 -115 -29 -115 12 0 21 -3 21 -6 0
-18 -88 -152 -151 -229 -306 -376 -657 -748 -716 -759 -92 -17 -96 -18 -82
-27 8 -5 50 -9 94 -9 291 -1 655 -58 919 -145 155 -51 325 -149 474 -275 78
-65 101 -72 59 -17 -83 109 -342 269 -545 337 -110 36 -322 84 -472 105 -139
20 -150 22 -130 35 20 13 114 12 126 0 8 -8 53 -7 147 1 102 9 147 9 181 0 25
-6 65 -11 89 -11 86 0 137 -11 137 -30 0 -13 13 -21 48 -29 101 -25 192 -54
192 -62 0 -5 -7 -9 -15 -9 -29 0 -14 -27 28 -49 54 -30 167 -102 167 -107 0
-2 -5 -13 -12 -23 -13 -22 -21 -8 99 -166 70 -93 143 -209 143 -229 0 -15 -30
-2 -114 53 -99 63 -214 121 -244 121 -10 0 -23 -5 -28 -10 -7 -7 -21 -3 -45
13 -92 61 -107 68 -127 56 -15 -10 -31 -5 -94 30 -78 43 -103 49 -111 29 -3
-9 -42 6 -121 47 -114 58 -118 59 -132 40 -14 -19 -15 -19 -42 -2 -15 10 -73
41 -129 68 -88 43 -104 48 -122 37 -17 -11 -33 -6 -113 31 -221 102 -329 144
-341 132 -9 -9 -12 -71 -12 -214 0 -182 3 -215 28 -332 32 -147 68 -273 104
-359 13 -32 22 -65 18 -73 -8 -23 -82 -10 -112 19 -43 44 -99 243 -124 443
-16 134 -14 375 6 468 9 42 13 81 10 86 -7 13 -230 139 -350 198 -119 60 -315
140 -439 179 -61 20 -91 35 -94 47 -3 11 -24 23 -61 33 -31 9 -78 22 -106 30
-27 8 -57 23 -65 35 -15 19 -65 35 -182 59 -37 7 -58 16 -58 25 0 8 -8 16 -19
20 -19 6 -172 25 -203 25 -9 0 -29 11 -45 24 -33 28 -103 50 -256 81 -59 12
-109 25 -110 30 -1 5 13 13 31 17 43 11 41 32 -5 51 -53 21 -249 72 -368 97
-55 11 -104 25 -109 30 -6 6 4 15 27 25 53 22 266 73 363 86 107 15 115 21 84
53 l-23 26 130 0 c121 0 132 1 144 21 l14 21 115 -27 c63 -14 127 -28 141 -31
21 -5 27 -2 32 15 l5 22 59 -26 c32 -14 87 -42 122 -62 60 -33 65 -35 77 -18
12 16 23 8 126 -80 62 -53 132 -106 154 -117 24 -11 87 -65 149 -129 58 -60
108 -109 110 -109 1 0 6 12 9 26 7 26 7 26 28 8 24 -22 226 -298 235 -321 9
-22 -3 -15 -117 77 -224 180 -409 296 -639 400 -315 143 -565 200 -861 199
-69 0 -120 -2 -115 -4 6 -2 89 -11 185 -20 552 -50 973 -249 1567 -742 62 -51
134 -107 160 -123 27 -17 60 -45 75 -63 23 -27 28 -29 28 -12 0 11 -16 65 -36
120 -64 179 -151 496 -185 670 -13 69 -39 301 -39 354 0 35 3 42 15 37 9 -3
18 0 20 7 2 6 11 103 19 215 8 112 17 206 20 209 3 3 13 0 21 -7 25 -20 35 -2
50 94 17 104 61 288 81 335 13 32 15 33 33 17 23 -21 29 -13 61 69 42 107 142
340 150 349 4 4 11 -1 15 -13 14 -46 31 -25 175 217 56 96 113 186 126 200 23
26 23 26 24 5 0 -40 20 -35 48 12 52 87 193 298 229 341 35 44 58 57 47 29
-14 -36 25 -9 90 62 235 257 405 422 434 423 6 0 12 -11 12 -24z m-3288 -852
c40 -14 170 -73 288 -130 118 -57 219 -104 223 -104 5 0 6 14 2 30 -5 23 -3
30 8 30 16 0 157 -98 276 -193 56 -44 79 -57 97 -53 18 5 32 -5 74 -51 29 -31
59 -68 68 -82 36 -58 75 -102 87 -98 6 3 19 -7 27 -21 18 -30 98 -279 98 -304
0 -8 6 -21 14 -27 11 -10 16 -8 21 8 3 12 10 21 15 21 15 0 55 -157 80 -317
11 -70 21 -86 36 -62 3 6 10 7 14 2 7 -6 70 -357 70 -387 0 -4 8 -5 19 -1 14
4 20 0 24 -17 3 -13 19 -84 36 -158 57 -252 82 -373 77 -378 -6 -5 -51 90
-107 223 -47 114 -218 458 -290 582 -166 290 -489 747 -683 968 -143 163 -351
355 -384 355 -6 0 54 -64 132 -142 225 -224 403 -445 630 -780 249 -370 420
-676 583 -1048 189 -430 254 -584 251 -599 -2 -10 -46 41 -108 123 -174 231
-289 377 -357 455 -40 46 -62 79 -58 88 3 10 -32 54 -103 127 -60 62 -127 137
-150 167 -23 30 -87 95 -143 145 -55 49 -108 103 -116 119 -9 17 -67 79 -129
138 -83 79 -114 115 -114 133 0 16 -36 60 -120 147 -66 69 -120 127 -120 131
0 3 7 6 15 6 21 0 19 18 -9 54 -78 103 -149 215 -185 291 -54 115 -54 135 -3
94 61 -47 38 27 -99 333 -49 108 -89 200 -89 203 0 11 30 4 102 -21z m5518
-665 c0 -18 -117 -145 -294 -322 -87 -87 -156 -160 -153 -163 3 -3 22 2 42 10
21 9 45 16 53 16 23 0 -69 -92 -220 -218 -147 -122 -155 -134 -80 -113 17 5
32 6 32 1 0 -19 -164 -135 -347 -245 -53 -32 -83 -56 -83 -67 0 -22 -6 -25
-175 -88 -179 -66 -235 -90 -235 -101 0 -5 9 -9 19 -9 32 0 34 -19 4 -31 -15
-6 -116 -42 -223 -81 -293 -104 -331 -119 -324 -129 3 -5 21 -9 40 -9 32 0 45
-12 26 -24 -5 -3 -60 -19 -123 -36 -137 -37 -229 -70 -229 -81 0 -4 24 -9 53
-11 28 -2 51 -7 50 -13 -1 -5 -70 -37 -155 -70 -210 -84 -652 -277 -772 -337
-54 -27 -101 -46 -104 -43 -3 3 55 67 128 141 147 148 271 244 1060 824 496
364 879 606 1425 902 132 72 244 134 250 139 73 69 -516 -233 -874 -448 -216
-129 -468 -297 -663 -440 -81 -59 -236 -173 -344 -253 -109 -80 -279 -204
-378 -277 -99 -73 -182 -130 -184 -128 -3 2 21 37 52 77 31 40 127 166 213
281 85 114 161 207 168 207 7 0 16 -6 19 -12 3 -9 11 -5 23 12 167 228 258
333 282 325 11 -3 54 33 141 121 159 159 196 190 214 175 16 -13 34 0 153 109
77 72 229 190 244 190 5 0 9 -11 9 -25 0 -14 3 -25 6 -25 3 0 65 29 138 63
146 71 294 132 302 125 2 -3 0 -17 -5 -32 -13 -32 -12 -32 92 -2 112 33 264
63 480 96 206 32 247 35 247 19z m-1888 -1721 c3 -9 37 -12 130 -9 144 3 218
-5 218 -25 0 -15 7 -16 205 -39 77 -9 141 -18 143 -20 9 -9 -11 -25 -29 -25
-40 0 -12 -23 61 -50 86 -32 204 -85 305 -137 80 -41 225 -140 225 -154 0 -5
-17 -9 -37 -9 -21 0 -146 -5 -277 -10 -221 -8 -288 -18 -243 -36 9 -3 17 -12
17 -20 0 -11 -31 -14 -165 -14 -91 0 -165 -4 -165 -8 0 -4 5 -13 12 -20 16
-16 -5 -16 -162 3 -165 20 -170 19 -170 -5 0 -11 -2 -20 -4 -20 -9 0 -154 31
-235 51 -65 16 -90 18 -108 10 -17 -8 -49 -7 -116 4 -50 7 -128 19 -172 26
-44 7 -187 15 -317 18 -221 6 -276 11 -231 25 42 12 389 76 518 95 285 41 471
55 760 55 302 1 453 -10 693 -50 153 -26 216 -28 132 -4 -250 69 -747 111
-1080 90 -280 -18 -608 -62 -900 -121 -161 -32 -168 -33 -154 -19 24 24 727
324 867 370 63 20 223 57 259 59 9 1 18 -5 20 -11z m-2677 -242 c44 -8 105
-17 136 -20 33 -3 108 -27 181 -56 71 -29 133 -48 142 -44 20 8 131 -32 148
-54 11 -13 10 -15 -12 -9 -86 20 -264 48 -380 58 -210 18 -418 -3 -603 -61
-97 -31 -243 -97 -234 -107 3 -2 18 2 34 10 42 21 174 63 298 94 103 26 124
28 320 28 303 0 502 -28 728 -104 65 -21 121 -42 125 -45 13 -14 -21 -23 -101
-30 -45 -3 -131 -17 -190 -31 -70 -16 -124 -22 -150 -19 -25 4 -87 -3 -151
-15 -103 -19 -111 -20 -128 -4 -17 15 -29 16 -130 5 -83 -10 -114 -10 -124 -1
-10 8 -34 8 -94 0 -44 -7 -100 -9 -123 -6 -26 4 -69 0 -110 -9 -87 -20 -101
-20 -93 0 6 15 -1 16 -51 10 -50 -6 -260 -51 -330 -72 -14 -4 -23 -2 -23 4 0
21 84 92 231 193 119 82 148 107 143 121 -7 22 33 41 135 64 86 20 99 27 82
48 -17 21 -9 24 103 35 66 6 91 13 98 25 5 9 17 15 26 12 9 -3 53 -11 97 -20z"/>
<path d="M3693 4614 c-161 -229 -450 -890 -658 -1508 -77 -228 -70 -275 9 -61
32 88 123 322 201 520 215 542 302 740 414 943 59 107 79 170 34 106z"/>
<path d="M2712 2765 c-39 -20 -92 -55 -119 -79 -75 -68 -116 -164 -45 -107 56
45 124 70 217 78 l90 8 15 42 c14 41 13 43 -10 68 -32 34 -64 32 -148 -10z"/>
<path d="M3050 2768 c-43 -23 -68 -105 -37 -125 6 -4 46 -8 87 -8 101 0 163
-31 259 -127 40 -41 71 -65 71 -56 0 8 -16 47 -35 86 -74 147 -262 273 -345
230z"/>
<path d="M2560 2413 c0 -5 39 -28 85 -52 47 -25 91 -51 98 -59 10 -13 3 -14
-53 -10 -36 3 -86 15 -112 27 -27 11 -48 17 -48 12 0 -14 114 -70 158 -77 26
-4 42 -12 42 -20 0 -21 19 -17 57 12 34 26 42 44 20 44 -8 0 -30 16 -51 36
-47 45 -196 112 -196 87z"/>
<path d="M2412 2290 c-35 -22 -67 -63 -52 -68 6 -2 17 2 26 9 19 16 27 6 43
-51 7 -25 33 -71 57 -102 58 -75 74 -114 74 -187 0 -53 -3 -62 -27 -81 -39
-31 -52 -58 -53 -111 0 -87 51 -120 184 -121 98 0 163 22 225 78 29 26 79 56
122 74 40 16 97 46 126 66 68 47 163 149 200 213 31 56 41 61 68 31 25 -27 30
-18 11 18 -17 32 -52 62 -73 62 -6 0 -18 -12 -25 -27 -14 -30 -74 -59 -190
-91 -89 -24 -379 -24 -458 0 -78 24 -143 69 -180 123 -34 50 -51 127 -31 139
15 10 14 33 -3 39 -7 3 -27 -3 -44 -13z m587 -469 c33 -24 41 -55 15 -65 -25
-10 -34 -7 -34 10 0 10 -25 -7 -67 -45 -90 -81 -139 -105 -231 -109 -82 -5
-122 8 -152 46 -30 37 -25 74 12 111 33 32 109 61 161 61 l29 0 -22 -36 c-28
-44 -19 -56 18 -22 80 76 202 98 271 49z"/>
</g>
</svg>
