<svg xmlns="http://www.w3.org/2000/svg"	viewBox="0 0 629.000000 507.000000" fill="currentcolor"><g transform="translate(0.000000,507.000000) scale(0.100000,-0.100000)"><path d="M3883 5047 c-57 -21 -225 -176 -391 -361 -29 -32 -61 -59 -70 -60 -47 -3 -170 -131 -257 -268 -19 -30 -35 -29 -35 3 0 10 -3 19 -7 19 -10 0 -194 -283 -293 -449 -69 -116 -80 -128 -129 -155 -50 -27 -56 -34 -95 -120 -23 -50 -57 -130 -76 -178 -25 -64 -40 -88 -52 -88 -43 0 -116 -161 -149 -331 -6 -33 -15 -59 -19 -59 -5 0 -17 12 -28 27 -11 16 -23 25 -27 22 -3 -4 -10 -46 -15 -95 -5 -49 -14 -133 -20 -186 -5 -53 -10 -120 -10 -150 0 -90 -16 -88 -29 4 -18 123 -50 228 -70 228 -12 0 -20 21 -33 88 -29 145 -47 191 -88 231 -29 28 -44 57 -67 126 -46 136 -71 184 -116 216 -22 16 -51 46 -65 67 -59 89 -180 192 -225 192 -8 0 -53 29 -100 65 -162 122 -231 162 -292 170 -36 4 -61 3 -69 -4 -10 -8 -37 1 -107 35 -195 96 -369 164 -419 164 -32 0 -120 -48 -120 -66 0 -10 29 -76 143 -324 36 -78 57 -131 57 -141 0 -5 -7 -9 -16 -9 -14 0 -16 -10 -12 -62 5 -70 65 -220 118 -295 36 -49 36 -53 9 -53 -15 0 -19 -5 -15 -15 13 -36 158 -218 242 -305 51 -52 99 -113 108 -134 10 -24 63 -87 136 -160 66 -67 177 -179 247 -250 71 -71 117 -121 103 -112 -14 9 -38 25 -53 35 -16 10 -56 24 -90 31 -34 6 -93 25 -132 42 -64 28 -76 30 -142 24 -50 -5 -92 -2 -138 9 -82 19 -142 19 -175 0 -20 -11 -79 -14 -287 -15 -145 0 -263 -4 -263 -8 0 -5 30 -28 67 -52 l68 -43 -75 -20 c-258 -67 -266 -72 -304 -194 -12 -39 45 -59 389 -137 47 -10 52 -14 79 -68 27 -55 30 -57 75 -63 53 -8 161 -29 243 -49 31 -8 72 -26 92 -41 27 -21 56 -30 128 -41 51 -8 99 -14 106 -14 6 0 12 -7 12 -15 0 -15 9 -18 102 -34 31 -6 85 -24 119 -42 55 -27 61 -33 46 -44 -9 -7 -51 -15 -93 -18 -75 -6 -104 -17 -154 -62 -14 -12 -43 -28 -65 -35 -90 -28 -189 -98 -179 -125 4 -9 -26 -34 -83 -73 -148 -100 -187 -136 -292 -271 -55 -72 -101 -133 -101 -136 0 -12 51 -2 257 50 120 30 226 55 236 55 9 0 17 -7 17 -16 0 -14 8 -15 58 -9 31 3 93 16 137 27 45 11 97 18 120 15 22 -2 72 0 110 5 41 6 84 6 103 1 19 -5 70 -4 118 1 64 7 94 6 125 -4 35 -12 56 -11 162 6 83 14 132 18 154 12 23 -6 55 -3 113 12 75 19 254 50 292 50 15 0 16 -13 11 -137 -12 -281 57 -667 143 -796 67 -102 269 -104 296 -2 8 33 5 49 -41 175 -66 181 -109 389 -118 571 -4 80 -2 128 4 132 6 4 75 -23 154 -60 103 -47 161 -68 204 -73 72 -8 92 -16 193 -75 85 -48 135 -64 155 -47 9 8 39 -3 110 -38 76 -39 104 -48 127 -43 23 4 46 -2 90 -26 37 -20 71 -31 92 -30 22 2 49 -8 82 -29 38 -24 61 -32 97 -32 59 0 89 -13 219 -94 144 -90 156 -94 214 -59 50 30 55 46 36 114 -13 46 -89 172 -163 270 -46 62 -57 84 -57 115 0 32 -7 45 -50 86 -27 26 -50 50 -50 52 0 14 49 16 138 5 96 -12 103 -12 116 6 12 17 21 18 127 9 63 -6 194 -8 292 -6 175 4 178 4 161 23 -16 18 -16 19 2 26 11 3 34 18 52 32 33 24 40 25 255 32 193 7 401 30 417 46 12 13 -218 191 -345 268 -44 27 -125 68 -180 93 -55 24 -101 45 -103 47 -2 2 2 12 9 24 16 24 19 20 -56 55 -61 28 -156 49 -286 62 -49 5 -83 14 -101 27 -22 16 -50 21 -167 27 -78 3 -144 9 -147 13 -4 4 10 14 32 23 21 9 82 35 134 59 52 23 103 45 113 48 22 8 22 25 0 29 -10 2 16 16 57 31 91 34 148 70 160 101 6 17 31 31 97 55 150 56 230 98 237 124 3 13 23 33 48 47 112 62 301 194 356 249 19 19 32 43 32 57 0 40 13 56 116 145 124 107 164 159 164 211 0 35 10 49 134 181 180 191 192 207 216 262 24 55 21 61 -45 94 l-46 23 -196 -27 c-176 -24 -305 -47 -486 -87 -53 -11 -60 -11 -68 5 -19 33 -115 14 -267 -51 -50 -22 -94 -37 -96 -34 -3 2 -1 13 5 24 28 52 3 47 -129 -27 -145 -80 -239 -147 -358 -254 -59 -53 -86 -70 -117 -75 -35 -6 -59 -25 -187 -151 -80 -80 -150 -145 -154 -145 -48 0 -171 -130 -303 -319 -2 -2 -5 -2 -8 1 -3 3 4 30 15 59 18 44 20 66 15 119 -6 58 -2 79 34 192 27 88 42 156 47 219 l7 92 -28 -7 c-27 -7 -27 -6 -21 26 37 199 54 349 46 413 -4 39 -11 77 -15 86 -6 15 13 126 50 292 16 74 14 87 -16 87 -10 0 -19 3 -19 8 0 4 14 72 31 152 29 134 32 167 39 425 4 154 13 309 19 344 15 80 3 122 -43 151 -38 23 -40 23 -83 7z m37 -103 c0 -3 -18 -112 -39 -242 -63 -373 -64 -427 -10 -338 l19 31 0 -31 c0 -42 -14 -118 -62 -337 -23 -103 -38 -190 -35 -193 4 -4 18 1 33 11 l27 17 -7 -27 c-22 -86 -57 -299 -59 -355 -2 -62 -1 -65 21 -63 18 2 21 -1 17 -20 -7 -33 -62 -383 -70 -448 -8 -62 1 -77 36 -59 18 10 20 9 15 -7 -3 -10 -28 -90 -55 -178 -62 -200 -62 -201 -33 -198 12 2 22 0 22 -3 0 -8 -21 -55 -91 -204 -61 -130 -69 -160 -44 -160 21 0 20 -2-25 -77 -98 -160 -585 -720 -739 -849 -50 -41 -75 -55 -110 -60 -25 -4 -53 -10 -61 -15 -13 -7 -13 -8 0 -13 8 -3 107 -10 219 -16 225 -11 357 -28 531 -67 339 -75 489 -143 726 -330 57 -46 106 -83 109 -83 32 0 -73 113 -180 193 -115 85 -333 189 -475 226 -132 35 -337 76 -425 86 -33 3 -69 9 -80 12 l-20 6 20 8 c26 10 100 11 109 1 4 -4 81 -7 169 -7 89 0 211 -4 270 -9 99 -8 109 -11 117 -31 6 -16 20 -25 47 -29 106 -19 227 -66 168 -66 -8 0 -15 -4 -15 -10 0 -11 24 -29 125 -88 77 -45 80 -48 77 -81 -3 -25 4 -42 28 -72 119 -148 216 -297 208 -319 -1 -5 -39 13 -83 42 -79 51 -184 107 -238 127 -20 8 -33 8 -46 -1 -16 -10 -29 -5 -83 30 -64 42 -92 51 -103 33 -3 -6 -45 10 -92 35 -79 42 -88 44 -99 29 -11 -15 -22 -11 -117 39 -107 58 -147 68 -147 40 0 -18 7 -21 -100 38 -120 66 -168 84 -190 70 -14 -8 -34 -3 -96 25 -225 100 -328 143 -340 143 -27 0 -34 -42 -35 -197 -2 -213 21 -363 87 -579 19 -62 43 -131 53 -155 11 -24 17 -47 15 -51 -3 -4 -23 -8 -45 -8 -30 0 -46 6 -64 26 -46 50 -101 262 -125 482 -16 141 -8 377 14 447 21 66 21 62 -20 87 -22 13 -33 26 -30 35 3 8 -19 89 -49 181 -115 346 -177 607 -200 846 l-15 154 24 44 c21 37 25 65 35 217 6 95 14 177 17 182 3 5 14 3 25 -4 26 -16 36 1 44 73 7 59 65 306 84 354 9 23 14 26 26 16 26 -21 40 -4 79 96 21 55 52 129 67 166 16 37 38 88 50 115 17 40 22 45 30 30 6 -9 16 -17 24 -17 14 0 59 65 115 165 62 110 173 285 181 285 5 0 9 -9 9 -20 0 -43 31 -16 84 73 50 85 168 259 215 317 17 21 21 22 21 7 0 -39 38 -8 184 152 184 201 356 358 356 325z m-3298 -870 c40 -14 171 -73 290 -131 215 -104 262 -118 238 -72 -7 11 -9 23 -6 27 7 6 162 -99 283 -192 61 -48 87 -62 105 -59 20 4 34 -7 80 -64 30 -37 69 -89 86 -115 19 -28 41 -48 54 -50 19 -2 29 -20 55 -93 18 -49 43 -126 54 -170 25 -94 34 -108 55 -80 13 17 16 18 24 5 12 -20 47 -173 60 -264 14 -95 26 -122 45 -106 19 16 19 17 45 -145 34 -212 39 -236 57 -233 17 3 18 1 61 -187 47 -204 74 -336 70 -340 -4 -5 -54 101 -78 165 -29 79 -273 563 -337 670 -183 304 -415 633 -619 875 -159 190 -406 419 -428 398 -4 -4 40 -52 98 -108 134 -129 292 -309 454 -518 73 -94 323 -465 420 -623 105 -172 216 -379 298 -555 70 -150 283 -638 316 -724 l19 -50 -24 25 c-13 14 -89 111 -167 215 -79 105 -185 240 -237 301 -56 68 -93 121 -93 134 0 22 -54 83 -377 418 -76 79 -194 199 -262 267 -87 88 -122 129 -117 140 4 12 -30 53 -114 141 -66 68 -120 129 -120 134 0 6 7 10 15 10 8 0 15 3 15 8 -1 4 -37 57 -80 117 -73 101 -187 311 -176 323 6 5 23 -2 48 -20 9 -7 20 -9 24 -6 13 13 -25 107 -202 506 -13 28 -20 52 -14 52 5 0 42 -12 82 -26z m5528 -662 c0 -13 -236 -267 -354 -380 -60 -58 -104 -108 -100 -112 5 -5 29 0 53 11 24 10 47 17 50 13 7 -7 -84 -93 -238 -223 -115 -97 -143 -129 -102 -117 11 3 30 9 41 12 11 3 20 1 20 -4 0 -13 -164 -127 -300 -210 -69 -41 -120 -79 -127 -94 -10 -20 -40 -35 -140 -73 -273 -102 -305 -119 -242 -136 l24 -6 -30 -13 c-32 -13 -180 -66 -360 -129 -183 -65 -190 -68 -188 -77 1 -5 10 -10 20 -12 44 -7 65 -13 60 -18 -3 -3 -61 -21 -128 -40 -148 -41 -239 -73 -239 -85 0 -5 6 -10 13 -10 6 -1 17 -2 22 -4 6 -1 26 -3 45 -3 47 -3 33 -12 -95 -62 -172 -68 -694 -294 -795 -345 -51 -26 -95 -44 -98 -41 -3 3 58 68 134 143 143 142 299 262 1199 922 332 243 792 529 1269 788 241 131 256 140 256 154 0 33 -634 -299 -980 -513 -218 -136 -359 -232 -639 -437 -139 -102 -364 -267 -500 -366 -135 -99 -263 -193 -284 -209 -20 -16 -37 -25 -37 -21 0 4 40 57 88 118 48 62 128 166 176 232 146 197 156 209 170 189 14 -19 9 -25 132 141 110 147 155 195 182 195 19 0 65 40 183 156 135 133 161 155 174 144 19 -15 21 -14 149 102 162 146 270 220 252 173 -12 -31 26 -26 102 13 86 45 278 128 317 138 24 6 25 4 20 -19 -4 -14 -2 -27 3 -31 5 -3 42 5 81 19 112 38 406 92 696 128 17 2 33 5 38 6 4 0 7 -3 7 -7z m-5142 -1107 c122 -29 138 -30 150 -9 8 15 24 10 132 -42 84 -40 125 -55 128 -46 2 6 8 12 13 12 5 0 55 -41 111 -90 57 -50 121 -99 143 -110 22 -11 91 -71 154 -134 63 -63 118 -113 123 -110 4 3 8 14 8 25 0 10 4 19 8 19 12 0 248 -318 241 -324 -2 -2 -58 39 -124 91 -149 117 -340 245 -465 312 -105 56 -304 143 -392 172 -97 32 -295 79 -376 89 -71 9 -304 16 -362 11 -58 -5 20 -19 170 -30 414 -32 777 -167 1180 -439 109 -74 209 -151 479 -371 36 -29 82 -61 102 -71 30 -16 71 -70 52 -70 -3 0 -45 23 -94 50 -174 100 -416 207 -604 268 -45 14 -89 35 -100 48 -18 21 -101 50 -192 69 -19 4 -33 13 -33 21 0 20 -45 37 -150 60 -54 11 -90 25 -100 37 -12 14 -42 22 -134 33 -97 12 -122 18 -133 34 -16 23 -72 41 -237 75 -66 14 -122 28 -124 30 -2 2 11 8 29 13 47 12 42 33 -11 58 -38 18 -282 82 -424 111 -22 5 -41 13 -43 19 -6 19 252 83 440 110 45 6 57 27 32 54 -18 20 -17 20 112 20 107 0 132 3 137 15 8 21 35 19 154 -10z m3252 -627 c0 -8 28 -9 102 -5 139 9 245 -1 251 -22 3 -13 34 -20 162 -34 166 -19 208 -29 161 -41 -34 -8 -33 -32 2 -41 36 -9 215 -86 327 -141 90 -45 245 -147 245 -163 0 -4 -117 -11 -261 -15 -143 -4 -273 -12 -287 -17 l-27 -10 25 -19 c25 -19 24 -20 -142 -20 -169 0 -193 -5 -167 -36 10 -13 7 -14 -27 -9 -206 29 -294 32 -294 10 0 -21 -24 -19 -177 16 -91 21 -147 29 -170 24 -38 -7 -252 17 -353 40 -46 11 -127 15 -275 16 -135 0 -203 4 -190 9 28 13 361 75 530 99 289 41 509 54 835 48 300 -6 407 -15 678 -60 45 -8 85 -11 87 -6 8 12 -2 15 -105 37 -288 61 -526 83 -870 78 -317 -4 -619 -39 -1023 -117 -87 -17 -161 -29 -163 -26 -9 9 569 258 790 341 152 57 336 93 336 64z m-2662 -238 c56 -11 117 -20 133 -20 17 0 88 -22 158 -49 71 -28 141 -49 161 -49 33 1 138 -37 129 -47 -3 -2 -54 5 -114 15 -345 59 -609 52 -850 -21 -103 -32 -258 -100 -270 -118 -10 -16 12 -13 53 8 57 29 243 83 387 113 135 27 539 7 755 -38 87 -18 317 -91 324 -103 3 -4 -45 -13 -107 -21 -62 -7 -152 -23 -201 -36 -49 -13 -94 -20 -99 -17 -16 10 -99 4 -199 -13 -90 -16 -98 -16 -113 0 -18 17 -50 16 -185 -3 -29 -5 -52 -3 -65 5 -16 10 -39 9 -109 -1 -59 -9 -96 -11 -107 -4 -13 6 -46 3 -108 -11 -108 -24 -102 -23 -95 -6 3 8 1 17 -5 20 -11 7 -242 -36 -317 -59 -27 -8 -58 -15 -69 -14 -31 0 65 82 217 186 156 106 162 111 148 128 -13 15 10 25 125 56 91 24 110 35 95 54 -14 17 1 21 102 30 47 4 81 12 89 21 15 18 14 18 137 -6z" /><path 			d="M3674 4593 c-59 -93 -135 -236 -219 -413 -128 -273 -198 -448 -430 -1080 -55 -149 -118 -376 -190 -686 -50 -215 -54 -232 -70 -309 -7 -38 -21 -97 -30 -130 -54 -196 -167 -815 -154 -837 19 -30 35 29 80 295 5 31 27 141 49 245 21 103 48 232 60 287 18 87 94 389 214 855 43 167 80 273 213 615 194 496 344 845 436 1015 70 130 97 184 97 193 0 22 -24 0 -56 -50z" /></g></svg>